<svg width="321" height="142" viewBox="0 0 321 142" fill="none" xmlns="http://www.w3.org/2000/svg">
<g clip-path="url(#clip0_1_3)">
<rect width="321" height="142" rx="20" fill="url(#paint0_linear_1_3)"/>
<path d="M18.7258 23.8182H24.5922V64.7841C24.5922 67.1373 24.1862 69.1757 23.3742 70.8991C22.5787 72.6226 21.369 73.9567 19.7449 74.9013C18.1375 75.8459 16.1074 76.3182 13.6547 76.3182C13.4559 76.3182 13.257 76.3182 13.0581 76.3182C12.8593 76.3182 12.6604 76.3182 12.4616 76.3182V70.8494C12.6604 70.8494 12.8427 70.8494 13.0084 70.8494C13.1742 70.8494 13.3564 70.8494 13.5553 70.8494C15.3451 70.8494 16.6543 70.3191 17.4829 69.2585C18.3115 68.2145 18.7258 66.723 18.7258 64.7841V23.8182ZM21.6093 17.4545C20.4658 17.4545 19.4798 17.0651 18.6512 16.2862C17.8392 15.5073 17.4331 14.571 17.4331 13.4773C17.4331 12.3835 17.8392 11.4472 18.6512 10.6683C19.4798 9.88944 20.4658 9.5 21.6093 9.5C22.7528 9.5 23.7305 9.88944 24.5425 10.6683C25.3711 11.4472 25.7854 12.3835 25.7854 13.4773C25.7854 14.571 25.3711 15.5073 24.5425 16.2862C23.7305 17.0651 22.7528 17.4545 21.6093 17.4545ZM66.3996 46.3892V23.8182H72.2661V62H66.3996V55.5369H66.0019C65.107 57.4759 63.7149 59.1248 61.8257 60.4837C59.9365 61.826 57.5502 62.4972 54.6666 62.4972C52.2803 62.4972 50.1591 61.9751 48.303 60.9311C46.4469 59.8705 44.9886 58.2796 43.928 56.1584C42.8674 54.0206 42.3371 51.3277 42.3371 48.0795V23.8182H48.2036V47.6818C48.2036 50.4659 48.9825 52.6866 50.5402 54.3438C52.1146 56.0009 54.1198 56.8295 56.5558 56.8295C58.0142 56.8295 59.4974 56.4567 61.0054 55.7109C62.53 54.9652 63.8061 53.8217 64.8335 52.2805C65.8776 50.7393 66.3996 48.7756 66.3996 46.3892ZM117.056 32.3693L111.786 33.8608C111.455 32.9825 110.966 32.129 110.32 31.3004C109.69 30.4553 108.828 29.7592 107.735 29.2124C106.641 28.6655 105.241 28.392 103.534 28.392C101.197 28.392 99.2498 28.9306 97.692 30.0078C96.1508 31.0684 95.3802 32.419 95.3802 34.0597C95.3802 35.518 95.9105 36.6697 96.9711 37.5149C98.0318 38.3601 99.689 39.0644 101.943 39.6278L107.61 41.0199C111.024 41.8485 113.568 43.1162 115.242 44.8232C116.916 46.5135 117.752 48.6927 117.752 51.3608C117.752 53.5483 117.123 55.5038 115.863 57.2273C114.62 58.9508 112.88 60.3097 110.643 61.304C108.406 62.2983 105.804 62.7955 102.838 62.7955C98.9432 62.7955 95.72 61.9503 93.1679 60.2599C90.6158 58.5696 89 56.1004 88.3206 52.8523L93.8888 51.4602C94.4191 53.5152 95.4217 55.0563 96.8966 56.0838C98.3881 57.1113 100.335 57.625 102.738 57.625C105.473 57.625 107.643 57.045 109.251 55.8849C110.875 54.7083 111.687 53.2997 111.687 51.6591C111.687 50.3333 111.223 49.223 110.295 48.3281C109.367 47.4167 107.942 46.7372 106.019 46.2898L99.6558 44.7983C96.1591 43.9697 93.5905 42.6854 91.9498 40.9453C90.3258 39.1887 89.5138 36.9929 89.5138 34.358C89.5138 32.2036 90.1186 30.2978 91.3284 28.6406C92.5547 26.9834 94.2202 25.6825 96.3248 24.7379C98.4461 23.7933 100.849 23.321 103.534 23.321C107.312 23.321 110.278 24.1496 112.433 25.8068C114.604 27.464 116.145 29.6515 117.056 32.3693ZM150.188 23.8182V28.7898H130.401V23.8182H150.188ZM136.168 14.6705H142.035V51.0625C142.035 52.7197 142.275 53.9626 142.756 54.7912C143.253 55.6032 143.883 56.1501 144.645 56.4318C145.424 56.697 146.244 56.8295 147.106 56.8295C147.752 56.8295 148.283 56.7964 148.697 56.7301C149.111 56.6473 149.443 56.581 149.691 56.5312L150.884 61.8011C150.487 61.9503 149.931 62.0994 149.219 62.2486C148.506 62.4143 147.603 62.4972 146.509 62.4972C144.852 62.4972 143.228 62.1409 141.637 61.4283C140.063 60.7157 138.754 59.6302 137.71 58.1719C136.682 56.7135 136.168 54.8741 136.168 52.6534V14.6705Z" fill="#E2E8F0"/>
<path d="M154.857 130L140.937 79.0909H147.201L157.84 120.554H158.337L169.175 79.0909H176.136L186.974 120.554H187.471L198.11 79.0909H204.374L190.454 130H184.09L172.854 89.4318H172.457L161.221 130H154.857ZM237.714 130.795C234.035 130.795 230.861 129.983 228.193 128.359C225.542 126.719 223.495 124.432 222.053 121.499C220.628 118.549 219.915 115.118 219.915 111.207C219.915 107.296 220.628 103.849 222.053 100.866C223.495 97.867 225.5 95.5303 228.069 93.8565C230.654 92.1662 233.67 91.321 237.117 91.321C239.106 91.321 241.07 91.6525 243.009 92.3153C244.947 92.9782 246.712 94.0554 248.303 95.5469C249.894 97.0218 251.162 98.9773 252.107 101.413C253.051 103.849 253.523 106.849 253.523 110.412V112.898H224.092V107.827H247.558C247.558 105.672 247.127 103.75 246.265 102.06C245.42 100.369 244.21 99.0353 242.636 98.0575C241.078 97.0798 239.238 96.5909 237.117 96.5909C234.781 96.5909 232.759 97.1709 231.052 98.331C229.362 99.4744 228.061 100.966 227.149 102.805C226.238 104.645 225.782 106.617 225.782 108.722V112.102C225.782 114.986 226.279 117.43 227.273 119.435C228.284 121.424 229.685 122.94 231.474 123.984C233.264 125.012 235.344 125.526 237.714 125.526C239.255 125.526 240.647 125.31 241.89 124.879C243.149 124.432 244.235 123.769 245.146 122.891C246.058 121.996 246.762 120.885 247.259 119.56L252.927 121.151C252.33 123.073 251.328 124.763 249.919 126.222C248.51 127.663 246.77 128.79 244.699 129.602C242.627 130.398 240.299 130.795 237.714 130.795ZM277.243 130V79.0909H283.109V97.8835H283.607C284.037 97.2206 284.634 96.3755 285.396 95.348C286.175 94.304 287.286 93.3759 288.727 92.5639C290.186 91.7353 292.158 91.321 294.643 91.321C297.858 91.321 300.692 92.1248 303.145 93.7322C305.598 95.3397 307.512 97.6184 308.887 100.568C310.263 103.518 310.95 106.998 310.95 111.009C310.95 115.052 310.263 118.557 308.887 121.523C307.512 124.473 305.606 126.76 303.17 128.384C300.734 129.992 297.925 130.795 294.743 130.795C292.29 130.795 290.326 130.389 288.852 129.577C287.377 128.749 286.241 127.812 285.446 126.768C284.651 125.708 284.037 124.83 283.607 124.134H282.911V130H277.243ZM283.01 110.909C283.01 113.793 283.433 116.336 284.278 118.54C285.123 120.728 286.357 122.443 287.982 123.686C289.606 124.912 291.594 125.526 293.947 125.526C296.4 125.526 298.447 124.879 300.087 123.587C301.745 122.277 302.987 120.521 303.816 118.317C304.661 116.096 305.084 113.627 305.084 110.909C305.084 108.224 304.67 105.805 303.841 103.651C303.029 101.48 301.794 99.7644 300.137 98.505C298.496 97.2289 296.433 96.5909 293.947 96.5909C291.561 96.5909 289.556 97.1958 287.932 98.4055C286.308 99.5987 285.081 101.272 284.253 103.427C283.424 105.565 283.01 108.059 283.01 110.909Z" fill="#CBD5E1"/>
</g>
<defs>
<linearGradient id="paint0_linear_1_3" x1="160.5" y1="0" x2="160.5" y2="142" gradientUnits="userSpaceOnUse">
<stop stop-color="#28487E"/>
<stop offset="0.9999" stop-color="#040B15" stop-opacity="0.89"/>
<stop offset="1" stop-color="#1E293B" stop-opacity="0"/>
</linearGradient>
<clipPath id="clip0_1_3">
<rect width="321" height="142" rx="20" fill="white"/>
</clipPath>
</defs>
</svg>
