<?xml version="1.0" encoding="utf-8"?>
<svg xmlns="http://www.w3.org/2000/svg" xmlns:xlink="http://www.w3.org/1999/xlink" style="margin: auto; background: none; display: block; shape-rendering: auto;" width="237px" height="237px" viewBox="0 0 100 100" preserveAspectRatio="xMidYMid">
<g transform="rotate(0 50 50)">
  <rect x="46" y="27.5" rx="4" ry="3.5" width="8" height="7" fill="#084f5a">
    <animate attributeName="opacity" values="1;0" keyTimes="0;1" dur="0.7092198581560283s" begin="-0.6382978723404255s" repeatCount="indefinite"></animate>
  </rect>
</g><g transform="rotate(36 50 50)">
  <rect x="46" y="27.5" rx="4" ry="3.5" width="8" height="7" fill="#38737f">
    <animate attributeName="opacity" values="1;0" keyTimes="0;1" dur="0.7092198581560283s" begin="-0.5673758865248226s" repeatCount="indefinite"></animate>
  </rect>
</g><g transform="rotate(72 50 50)">
  <rect x="46" y="27.5" rx="4" ry="3.5" width="8" height="7" fill="#6099a5">
    <animate attributeName="opacity" values="1;0" keyTimes="0;1" dur="0.7092198581560283s" begin="-0.4964539007092198s" repeatCount="indefinite"></animate>
  </rect>
</g><g transform="rotate(108 50 50)">
  <rect x="46" y="27.5" rx="4" ry="3.5" width="8" height="7" fill="#88c3cf">
    <animate attributeName="opacity" values="1;0" keyTimes="0;1" dur="0.7092198581560283s" begin="-0.42553191489361697s" repeatCount="indefinite"></animate>
  </rect>
</g><g transform="rotate(144 50 50)">
  <rect x="46" y="27.5" rx="4" ry="3.5" width="8" height="7" fill="#c2edf7">
    <animate attributeName="opacity" values="1;0" keyTimes="0;1" dur="0.7092198581560283s" begin="-0.35460992907801414s" repeatCount="indefinite"></animate>
  </rect>
</g><g transform="rotate(180 50 50)">
  <rect x="46" y="27.5" rx="4" ry="3.5" width="8" height="7" fill="#084f5a">
    <animate attributeName="opacity" values="1;0" keyTimes="0;1" dur="0.7092198581560283s" begin="-0.2836879432624113s" repeatCount="indefinite"></animate>
  </rect>
</g><g transform="rotate(216 50 50)">
  <rect x="46" y="27.5" rx="4" ry="3.5" width="8" height="7" fill="#38737f">
    <animate attributeName="opacity" values="1;0" keyTimes="0;1" dur="0.7092198581560283s" begin="-0.21276595744680848s" repeatCount="indefinite"></animate>
  </rect>
</g><g transform="rotate(252 50 50)">
  <rect x="46" y="27.5" rx="4" ry="3.5" width="8" height="7" fill="#6099a5">
    <animate attributeName="opacity" values="1;0" keyTimes="0;1" dur="0.7092198581560283s" begin="-0.14184397163120566s" repeatCount="indefinite"></animate>
  </rect>
</g><g transform="rotate(288 50 50)">
  <rect x="46" y="27.5" rx="4" ry="3.5" width="8" height="7" fill="#88c3cf">
    <animate attributeName="opacity" values="1;0" keyTimes="0;1" dur="0.7092198581560283s" begin="-0.07092198581560283s" repeatCount="indefinite"></animate>
  </rect>
</g><g transform="rotate(324 50 50)">
  <rect x="46" y="27.5" rx="4" ry="3.5" width="8" height="7" fill="#c2edf7">
    <animate attributeName="opacity" values="1;0" keyTimes="0;1" dur="0.7092198581560283s" begin="0s" repeatCount="indefinite"></animate>
  </rect>
</g>
<!-- [ldio] generated by https://loading.io/ --></svg>