<svg width="300" height="171" viewBox="0 0 300 171" fill="none" xmlns="http://www.w3.org/2000/svg">
<g clip-path="url(#clip0_2_6)">
<ellipse cx="149.5" cy="85" rx="116.5" ry="111" fill="url(#paint0_linear_2_6)"/>
<path d="M65.2258 29.8182H71.0922V70.7841C71.0922 73.1373 70.6862 75.1757 69.8742 76.8991C69.0787 78.6226 67.869 79.9567 66.2449 80.9013C64.6375 81.8459 62.6074 82.3182 60.1547 82.3182C59.9559 82.3182 59.757 82.3182 59.5581 82.3182C59.3593 82.3182 59.1604 82.3182 58.9616 82.3182V76.8494C59.1604 76.8494 59.3427 76.8494 59.5084 76.8494C59.6742 76.8494 59.8564 76.8494 60.0553 76.8494C61.8451 76.8494 63.1543 76.3191 63.9829 75.2585C64.8115 74.2145 65.2258 72.723 65.2258 70.7841V29.8182ZM68.1093 23.4545C66.9658 23.4545 65.9798 23.0651 65.1512 22.2862C64.3392 21.5073 63.9331 20.571 63.9331 19.4773C63.9331 18.3835 64.3392 17.4472 65.1512 16.6683C65.9798 15.8894 66.9658 15.5 68.1093 15.5C69.2528 15.5 70.2305 15.8894 71.0425 16.6683C71.8711 17.4472 72.2854 18.3835 72.2854 19.4773C72.2854 20.571 71.8711 21.5073 71.0425 22.2862C70.2305 23.0651 69.2528 23.4545 68.1093 23.4545ZM112.9 52.3892V29.8182H118.766V68H112.9V61.5369H112.502C111.607 63.4759 110.215 65.1248 108.326 66.4837C106.437 67.826 104.05 68.4972 101.167 68.4972C98.7803 68.4972 96.6591 67.9751 94.803 66.9311C92.9469 65.8705 91.4886 64.2796 90.428 62.1584C89.3674 60.0206 88.8371 57.3277 88.8371 54.0795V29.8182H94.7036V53.6818C94.7036 56.4659 95.4825 58.6866 97.0402 60.3438C98.6146 62.0009 100.62 62.8295 103.056 62.8295C104.514 62.8295 105.997 62.4567 107.505 61.7109C109.03 60.9652 110.306 59.8217 111.334 58.2805C112.378 56.7393 112.9 54.7756 112.9 52.3892ZM163.556 38.3693L158.286 39.8608C157.955 38.9825 157.466 38.129 156.82 37.3004C156.19 36.4553 155.328 35.7592 154.235 35.2124C153.141 34.6655 151.741 34.392 150.034 34.392C147.697 34.392 145.75 34.9306 144.192 36.0078C142.651 37.0684 141.88 38.419 141.88 40.0597C141.88 41.518 142.411 42.6697 143.471 43.5149C144.532 44.3601 146.189 45.0644 148.443 45.6278L154.11 47.0199C157.524 47.8485 160.068 49.1162 161.742 50.8232C163.416 52.5135 164.252 54.6927 164.252 57.3608C164.252 59.5483 163.623 61.5038 162.363 63.2273C161.12 64.9508 159.38 66.3097 157.143 67.304C154.906 68.2983 152.304 68.7955 149.338 68.7955C145.443 68.7955 142.22 67.9503 139.668 66.2599C137.116 64.5696 135.5 62.1004 134.821 58.8523L140.389 57.4602C140.919 59.5152 141.922 61.0563 143.397 62.0838C144.888 63.1113 146.835 63.625 149.238 63.625C151.973 63.625 154.143 63.045 155.751 61.8849C157.375 60.7083 158.187 59.2997 158.187 57.6591C158.187 56.3333 157.723 55.223 156.795 54.3281C155.867 53.4167 154.442 52.7372 152.519 52.2898L146.156 50.7983C142.659 49.9697 140.09 48.6854 138.45 46.9453C136.826 45.1887 136.014 42.9929 136.014 40.358C136.014 38.2036 136.619 36.2978 137.828 34.6406C139.055 32.9834 140.72 31.6825 142.825 30.7379C144.946 29.7933 147.349 29.321 150.034 29.321C153.812 29.321 156.778 30.1496 158.933 31.8068C161.104 33.464 162.645 35.6515 163.556 38.3693ZM196.688 29.8182V34.7898H176.901V29.8182H196.688ZM182.668 20.6705H188.535V57.0625C188.535 58.7197 188.775 59.9626 189.256 60.7912C189.753 61.6032 190.383 62.1501 191.145 62.4318C191.924 62.697 192.744 62.8295 193.606 62.8295C194.252 62.8295 194.783 62.7964 195.197 62.7301C195.611 62.6473 195.943 62.581 196.191 62.5312L197.384 67.8011C196.987 67.9503 196.431 68.0994 195.719 68.2486C195.006 68.4143 194.103 68.4972 193.009 68.4972C191.352 68.4972 189.728 68.1409 188.137 67.4283C186.563 66.7157 185.254 65.6302 184.21 64.1719C183.182 62.7135 182.668 60.8741 182.668 58.6534V20.6705Z" fill="#E2E8F0"/>
<path d="M93.8572 148L79.9368 97.0909H86.201L96.8402 138.554H97.3374L108.175 97.0909H115.136L125.974 138.554H126.471L137.11 97.0909H143.374L129.454 148H123.09L111.854 107.432H111.457L100.221 148H93.8572ZM176.714 148.795C173.035 148.795 169.861 147.983 167.193 146.359C164.542 144.719 162.495 142.432 161.053 139.499C159.628 136.549 158.915 133.118 158.915 129.207C158.915 125.296 159.628 121.849 161.053 118.866C162.495 115.867 164.5 113.53 167.069 111.857C169.654 110.166 172.67 109.321 176.117 109.321C178.106 109.321 180.07 109.652 182.009 110.315C183.947 110.978 185.712 112.055 187.303 113.547C188.894 115.022 190.162 116.977 191.107 119.413C192.051 121.849 192.523 124.849 192.523 128.412V130.898H163.092V125.827H186.558C186.558 123.672 186.127 121.75 185.265 120.06C184.42 118.369 183.21 117.035 181.636 116.058C180.078 115.08 178.238 114.591 176.117 114.591C173.781 114.591 171.759 115.171 170.052 116.331C168.362 117.474 167.061 118.966 166.149 120.805C165.238 122.645 164.782 124.617 164.782 126.722V130.102C164.782 132.986 165.279 135.43 166.273 137.435C167.284 139.424 168.685 140.94 170.474 141.984C172.264 143.012 174.344 143.526 176.714 143.526C178.255 143.526 179.647 143.31 180.89 142.879C182.149 142.432 183.235 141.769 184.146 140.891C185.058 139.996 185.762 138.885 186.259 137.56L191.927 139.151C191.33 141.073 190.328 142.763 188.919 144.222C187.51 145.663 185.77 146.79 183.699 147.602C181.627 148.398 179.299 148.795 176.714 148.795ZM216.243 148V97.0909H222.109V115.884H222.607C223.037 115.221 223.634 114.375 224.396 113.348C225.175 112.304 226.286 111.376 227.727 110.564C229.186 109.735 231.158 109.321 233.643 109.321C236.858 109.321 239.692 110.125 242.145 111.732C244.598 113.34 246.512 115.618 247.887 118.568C249.263 121.518 249.95 124.998 249.95 129.009C249.95 133.052 249.263 136.557 247.887 139.523C246.512 142.473 244.606 144.76 242.17 146.384C239.734 147.992 236.925 148.795 233.743 148.795C231.29 148.795 229.326 148.389 227.852 147.577C226.377 146.749 225.241 145.812 224.446 144.768C223.651 143.708 223.037 142.83 222.607 142.134H221.911V148H216.243ZM222.01 128.909C222.01 131.793 222.433 134.336 223.278 136.54C224.123 138.728 225.357 140.443 226.982 141.686C228.606 142.912 230.594 143.526 232.947 143.526C235.4 143.526 237.447 142.879 239.087 141.587C240.745 140.277 241.987 138.521 242.816 136.317C243.661 134.096 244.084 131.627 244.084 128.909C244.084 126.224 243.67 123.805 242.841 121.651C242.029 119.48 240.794 117.764 239.137 116.505C237.496 115.229 235.433 114.591 232.947 114.591C230.561 114.591 228.556 115.196 226.932 116.406C225.308 117.599 224.081 119.272 223.253 121.427C222.424 123.565 222.01 126.059 222.01 128.909Z" fill="#CBD5E1"/>
</g>
<defs>
<linearGradient id="paint0_linear_2_6" x1="149.5" y1="-26" x2="149.5" y2="196" gradientUnits="userSpaceOnUse">
<stop stop-color="#304465"/>
<stop offset="1" stop-color="#121C2C"/>
</linearGradient>
<clipPath id="clip0_2_6">
<rect width="300" height="171" fill="white"/>
</clipPath>
</defs>
</svg>
