<svg width="270" height="302" viewBox="0 0 270 302" fill="none" xmlns="http://www.w3.org/2000/svg">
<g clip-path="url(#clip0_1_2)">
<path d="M2.11765 52.6317L134.804 0L271.063 51.6959L249 247.135L134.804 317.544L22.3937 248.07L2.11765 52.6317Z" fill="#673AB7"/>
<path d="M171.269 173.785C177.979 173.058 183.067 167.009 182.836 159.751C182.606 152.489 176.822 146.68 169.881 146.68H169.419C162.247 146.925 156.694 153.215 156.929 160.718C157.16 164.347 158.548 167.494 160.628 169.67C152.764 185.888 140.735 197.746 122.692 207.666C110.432 214.442 97.7071 216.863 84.9858 215.169C74.5758 213.716 66.4773 208.878 61.3894 200.89C53.9867 189.032 53.2944 176.206 59.5397 163.38C63.9351 154.183 70.8727 147.407 75.2682 144.019C74.3451 140.875 72.9568 135.548 72.261 131.678C38.7198 157.089 42.1886 191.452 52.3677 207.666C60.0012 219.765 75.499 227.268 92.6193 227.268C97.2455 227.268 101.872 226.786 106.498 225.574C136.109 219.525 158.548 201.135 171.269 173.785ZM211.982 143.778C194.404 122.24 168.493 110.382 138.885 110.382H135.182C133.102 106.026 128.706 103.12 123.849 103.12H123.384C116.216 103.361 110.663 109.656 110.894 117.158C111.124 124.416 116.908 130.225 123.849 130.225H124.311C129.399 129.984 133.794 126.596 135.644 121.996H139.808C157.39 121.996 174.046 127.323 189.082 137.728C200.649 145.713 208.975 156.122 213.601 168.703C217.535 178.867 217.304 188.791 213.14 197.261C206.664 210.087 195.792 217.104 181.448 217.104C172.196 217.104 163.405 214.201 158.779 212.022C156.233 214.442 151.607 218.316 148.369 220.737C158.317 225.574 168.493 228.236 178.21 228.236C200.418 228.236 216.843 215.41 223.088 202.584C229.795 188.55 229.333 164.347 211.982 143.778ZM94.4691 177.9C94.6999 185.162 100.484 190.97 107.425 190.97H107.886C115.058 190.726 120.608 184.435 120.377 176.932C120.146 169.67 114.362 163.865 107.425 163.865H106.96C106.498 163.865 105.806 163.865 105.341 164.106C95.8573 147.651 91.9234 129.743 93.3116 110.382C94.2383 95.8621 98.8646 83.2772 106.96 72.8719C113.67 63.916 126.622 59.5604 135.413 59.3195C159.936 58.8339 170.346 90.78 171.038 103.606C174.046 104.332 179.133 106.026 182.606 107.235C179.829 68.0307 156.694 47.702 134.49 47.702C113.67 47.702 94.4691 63.4341 86.8356 86.6653C76.1949 117.64 83.1325 147.407 96.0881 170.883C94.9306 172.577 94.2383 175.238 94.4691 177.9Z" fill="white"/>
<rect x="39" y="228" width="188" height="74" rx="15" fill="#BB97FB"/>
<path d="M61.0341 282V247.091H74.8068C77.4432 247.091 79.6932 247.562 81.5568 248.506C83.4318 249.437 84.858 250.761 85.8352 252.477C86.8239 254.182 87.3182 256.187 87.3182 258.494C87.3182 260.812 86.8182 262.807 85.8182 264.477C84.8182 266.136 83.3693 267.409 81.4716 268.295C79.5852 269.182 77.3011 269.625 74.6193 269.625H65.3977V263.693H73.4261C74.8352 263.693 76.0057 263.5 76.9375 263.114C77.8693 262.727 78.5625 262.148 79.017 261.375C79.483 260.602 79.7159 259.642 79.7159 258.494C79.7159 257.335 79.483 256.358 79.017 255.562C78.5625 254.767 77.8636 254.165 76.9205 253.756C75.9886 253.335 74.8125 253.125 73.392 253.125H68.4148V282H61.0341ZM79.8864 266.114L88.5625 282H80.4148L71.9261 266.114H79.8864ZM104.628 282.511C101.934 282.511 99.6163 281.966 97.6731 280.875C95.7413 279.773 94.2527 278.216 93.2072 276.205C92.1618 274.182 91.639 271.79 91.639 269.028C91.639 266.335 92.1618 263.972 93.2072 261.938C94.2527 259.903 95.7243 258.318 97.622 257.182C99.5311 256.045 101.77 255.477 104.338 255.477C106.065 255.477 107.673 255.756 109.162 256.312C110.662 256.858 111.969 257.682 113.082 258.784C114.207 259.886 115.082 261.273 115.707 262.943C116.332 264.602 116.645 266.545 116.645 268.773V270.767H94.5368V266.267H109.809C109.809 265.222 109.582 264.295 109.128 263.489C108.673 262.682 108.042 262.051 107.236 261.597C106.44 261.131 105.514 260.898 104.457 260.898C103.355 260.898 102.378 261.153 101.525 261.665C100.684 262.165 100.025 262.841 99.5481 263.693C99.0709 264.534 98.8265 265.472 98.8152 266.506V270.784C98.8152 272.08 99.0538 273.199 99.5311 274.142C100.02 275.085 100.707 275.812 101.594 276.324C102.48 276.835 103.531 277.091 104.747 277.091C105.554 277.091 106.292 276.977 106.963 276.75C107.633 276.523 108.207 276.182 108.684 275.727C109.162 275.273 109.525 274.716 109.775 274.057L116.491 274.5C116.15 276.114 115.452 277.523 114.395 278.727C113.349 279.92 111.997 280.852 110.338 281.523C108.69 282.182 106.787 282.511 104.628 282.511ZM131.751 282.426C129.762 282.426 127.961 281.915 126.348 280.892C124.745 279.858 123.473 278.341 122.529 276.341C121.598 274.33 121.132 271.864 121.132 268.943C121.132 265.943 121.615 263.449 122.581 261.46C123.547 259.46 124.831 257.966 126.433 256.977C128.047 255.977 129.814 255.477 131.734 255.477C133.2 255.477 134.422 255.727 135.399 256.227C136.387 256.716 137.183 257.33 137.785 258.068C138.399 258.795 138.865 259.511 139.183 260.216H139.404V247.091H146.649V282H139.49V277.807H139.183C138.842 278.534 138.359 279.256 137.734 279.972C137.12 280.676 136.319 281.261 135.331 281.727C134.353 282.193 133.16 282.426 131.751 282.426ZM134.052 276.648C135.223 276.648 136.211 276.33 137.018 275.693C137.836 275.045 138.461 274.142 138.893 272.983C139.336 271.824 139.558 270.466 139.558 268.909C139.558 267.352 139.342 266 138.91 264.852C138.478 263.705 137.853 262.818 137.035 262.193C136.217 261.568 135.223 261.256 134.052 261.256C132.859 261.256 131.853 261.58 131.035 262.227C130.217 262.875 129.598 263.773 129.177 264.92C128.757 266.068 128.547 267.398 128.547 268.909C128.547 270.432 128.757 271.778 129.177 272.949C129.609 274.108 130.228 275.017 131.035 275.676C131.853 276.324 132.859 276.648 134.052 276.648ZM170.129 270.852V255.818H177.39V282H170.419V277.244H170.146C169.555 278.778 168.572 280.011 167.197 280.943C165.833 281.875 164.169 282.341 162.203 282.341C160.453 282.341 158.913 281.943 157.583 281.148C156.254 280.352 155.214 279.222 154.464 277.756C153.725 276.29 153.35 274.534 153.339 272.489V255.818H160.6V271.193C160.612 272.739 161.026 273.96 161.845 274.858C162.663 275.756 163.759 276.205 165.134 276.205C166.009 276.205 166.828 276.006 167.589 275.608C168.35 275.199 168.964 274.597 169.43 273.801C169.907 273.006 170.14 272.023 170.129 270.852ZM189.987 255.818L194.793 264.972L199.719 255.818H207.168L199.583 268.909L207.373 282H199.958L194.793 272.949L189.714 282H182.214L189.987 268.909L182.487 255.818H189.987Z" fill="#6E6EE5"/>
</g>
<defs>
<clipPath id="clip0_1_2">
<rect width="270" height="302" fill="white"/>
</clipPath>
</defs>
</svg>
